g bow04_yellow
v -0.102915 -1.907349E-08 -0.003241036
v -0.102915 0.3118397 -0.003241036
v -0.102915 0.3118396 0.003272357
v -0.102915 0 0.003272357
v -0.102915 -0.3118397 -0.003241036
v -0.102915 -0.3118396 0.003272357
v -0.01449615 -0.0613704 -0.006662989
v -0.01449615 0.06137042 -0.006662989
v -0.01449615 0.06137042 0.006702614
v -0.01449615 -0.0613704 0.006702614
v -0.01586319 0.2825675 -0.01009143
v 0.01641312 0.2970024 0.001889834
v -0.09135635 0.3267275 0.001888995
v -0.1180542 0.3148406 -0.008141763
v -0.08821823 0.3569609 0.001322455
v 0.01626221 0.2321051 -0.0108683
v 0.05097 0.2553293 0.001890125
v 0.01094589 0.1398706 -0.01164514
v 0.04808548 0.1718841 0.00189044
v -0.01449615 0.06137042 0.006702614
v -0.0005809021 0.06068513 0.01398343
v -0.0005809021 -0.06068512 0.01398343
v -0.01449615 -0.0613704 0.006702614
v 0.01333435 0.05999983 0.006706381
v 0.01333435 -0.05999982 0.006706381
v -0.01586319 0.2825675 0.01031878
v -0.1180542 0.3148405 0.008959379
v -0.09135635 0.3267275 0.001888995
v 0.01641312 0.2970024 0.001889834
v -0.08821823 0.3569609 0.001322455
v 0.01626221 0.232105 0.01086554
v 0.05097 0.2553293 0.001890125
v 0.01094589 0.1398706 0.01141232
v 0.04808548 0.1718841 0.00189044
v -0.08821823 0.3569609 0.001322455
v -0.1180542 0.3148405 0.008959379
v -0.1180542 0.3148406 -0.008141763
v -0.1180542 0.3148406 -0.008141763
v -0.1180542 0.3148405 0.008959379
v -0.01586319 0.2825675 0.01031878
v -0.01586319 0.2825675 -0.01009143
v 0.01626221 0.2321051 -0.0108683
v 0.01626221 0.232105 0.01086554
v 0.01094589 0.1398706 -0.01164514
v 0.01094589 0.1398706 0.01141232
v 0.05722534 0.04173248 3.905296E-05
v 0.04111008 0.06558375 3.688812E-05
v -0.02733047 0.0573309 -0.03829221
v 0.07875565 0.1297825 3.023624E-05
v 0.04728836 0.139442 -0.01913431
v 0.08871444 0.2120727 2.35939E-05
v 0.07875565 0.1297825 3.023624E-05
v 0.04727966 0.1394318 0.0191579
v -0.02733047 0.0573309 -0.03829221
v -0.02734787 0.05731047 0.03829221
v 0.05722534 0.04173248 3.905296E-05
v 0.02079193 0.06344333 3.728866E-05
v 0.05908585 0.1474032 3.0303E-05
v 0.03319138 0.168954 -0.0135004
v -0.02672028 0.1026116 -0.02702411
v 0.07569488 0.2529987 2.331257E-05
v 0.05908585 0.1474032 3.0303E-05
v 0.03318573 0.1689461 0.01352568
v -0.02672028 0.1026116 -0.02702411
v -0.02673096 0.102596 0.02702804
v 0.02079193 0.06344333 3.728866E-05
v -0.02673096 0.102596 0.02702804
v -0.02672028 0.1026116 -0.02702411
v 0.03319138 0.168954 -0.0135004
v 0.03318573 0.1689461 0.01352568
v 0.07569488 0.2529987 2.331257E-05
v -0.02734787 0.05731047 0.03829221
v 0.04111008 0.06558375 3.688812E-05
v 0.05722534 0.04173248 3.905296E-05
v 0.07875565 0.1297825 3.023624E-05
v 0.04727966 0.1394318 0.0191579
v 0.04727966 0.1394318 0.0191579
v -0.02734787 0.05731047 0.03829221
v -0.02733047 0.0573309 -0.03829221
v 0.04728836 0.139442 -0.01913431
v 0.08871444 0.2120727 2.35939E-05
v 0.03319138 0.168954 -0.0135004
v 0.05908585 0.1474032 3.0303E-05
v 0.07569488 0.2529987 2.331257E-05
v 0.03318573 0.1689461 0.01352568
v 0.05908585 0.1474032 3.0303E-05
v 0.02079193 0.06344333 3.728866E-05
v -0.02673096 0.102596 0.02702804
v 0.04728836 0.139442 -0.01913431
v 0.07875565 0.1297825 3.023624E-05
v 0.08871444 0.2120727 2.35939E-05
v -0.102915 0.3118396 0.003272357
v -0.09623596 0.3118397 0.003272347
v -0.09623596 -1.907349E-08 0.003272347
v -0.102915 0 0.003272357
v -0.102915 -0.3118396 0.003272357
v -0.09623596 -0.3118397 0.003272347
v -0.09623596 0.3118397 0.003272347
v -0.09623596 0.3118397 -0.003241031
v -0.09623596 0 -0.003241031
v -0.09623596 -1.907349E-08 0.003272347
v -0.09623596 -0.3118397 0.003272347
v -0.09623596 -0.3118397 -0.003241031
v -0.01449615 0.06137042 -0.006662989
v -0.01449615 -0.0613704 -0.006662989
v -0.0005809021 -0.06137038 -0.01393985
v -0.0005809021 0.0613704 -0.01393985
v 0.01333435 0.06137036 -0.006662996
v 0.01333435 -0.06137034 -0.006662996
v -0.01586319 -0.2825675 -0.01009143
v -0.1180542 -0.3148406 -0.008141763
v -0.09135635 -0.3267274 0.001888995
v 0.01641312 -0.2970024 0.001889834
v -0.08821823 -0.3569609 0.001322455
v 0.01626221 -0.232105 -0.0108683
v 0.05097 -0.2553293 0.001890125
v 0.01094589 -0.1398706 -0.01164514
v 0.04808548 -0.1718841 0.00189044
v -0.01586319 -0.2825675 0.01031878
v 0.01641312 -0.2970024 0.001889834
v -0.09135635 -0.3267274 0.001888995
v -0.1180542 -0.3148405 0.008959379
v -0.08821823 -0.3569609 0.001322455
v 0.01626221 -0.232105 0.01086554
v 0.05097 -0.2553293 0.001890125
v 0.01094589 -0.1398706 0.01141232
v 0.04808548 -0.1718841 0.00189044
v -0.08821823 -0.3569609 0.001322455
v -0.1180542 -0.3148406 -0.008141763
v -0.1180542 -0.3148405 0.008959379
v -0.1180542 -0.3148406 -0.008141763
v -0.01586319 -0.2825675 -0.01009143
v -0.01586319 -0.2825675 0.01031878
v -0.1180542 -0.3148405 0.008959379
v 0.01626221 -0.232105 -0.0108683
v 0.01626221 -0.232105 0.01086554
v 0.01094589 -0.1398706 -0.01164514
v 0.01094589 -0.1398706 0.01141232
v 0.05722534 -0.04173247 3.905296E-05
v -0.02733047 -0.05733089 -0.03829221
v 0.04111008 -0.06558374 3.688812E-05
v 0.07875565 -0.1297825 3.023624E-05
v 0.04728836 -0.139442 -0.01913431
v 0.08871444 -0.2120726 2.35939E-05
v 0.04727966 -0.1394317 0.0191579
v 0.07875565 -0.1297825 3.023624E-05
v -0.02733047 -0.05733089 -0.03829221
v 0.05722534 -0.04173247 3.905296E-05
v -0.02734787 -0.05731046 0.03829221
v 0.02079193 -0.06344332 3.728866E-05
v -0.02672028 -0.1026116 -0.02702411
v 0.03319138 -0.168954 -0.0135004
v 0.05908585 -0.1474032 3.0303E-05
v 0.07569488 -0.2529987 2.331257E-05
v 0.03318573 -0.1689461 0.01352568
v 0.05908585 -0.1474032 3.0303E-05
v -0.02672028 -0.1026116 -0.02702411
v 0.02079193 -0.06344332 3.728866E-05
v -0.02673096 -0.102596 0.02702804
v 0.03319138 -0.168954 -0.0135004
v -0.02672028 -0.1026116 -0.02702411
v -0.02673096 -0.102596 0.02702804
v 0.03318573 -0.1689461 0.01352568
v 0.07569488 -0.2529987 2.331257E-05
v -0.02734787 -0.05731046 0.03829221
v 0.05722534 -0.04173247 3.905296E-05
v 0.04111008 -0.06558374 3.688812E-05
v 0.07875565 -0.1297825 3.023624E-05
v 0.04727966 -0.1394317 0.0191579
v -0.02733047 -0.05733089 -0.03829221
v -0.02734787 -0.05731046 0.03829221
v 0.04727966 -0.1394317 0.0191579
v 0.04728836 -0.139442 -0.01913431
v 0.08871444 -0.2120726 2.35939E-05
v 0.03319138 -0.168954 -0.0135004
v 0.07569488 -0.2529987 2.331257E-05
v 0.05908585 -0.1474032 3.0303E-05
v 0.03318573 -0.1689461 0.01352568
v -0.02673096 -0.102596 0.02702804
v 0.02079193 -0.06344332 3.728866E-05
v 0.05908585 -0.1474032 3.0303E-05
v 0.04728836 -0.139442 -0.01913431
v 0.08871444 -0.2120726 2.35939E-05
v 0.07875565 -0.1297825 3.023624E-05
v -0.09623596 0.3118397 -0.003241031
v -0.102915 0.3118397 -0.003241036
v -0.102915 -1.907349E-08 -0.003241036
v -0.09623596 0 -0.003241031
v -0.09623596 -0.3118397 -0.003241031
v -0.102915 -0.3118397 -0.003241036
v 0.01333435 0.05999983 0.006706381
v 0.01333435 0.06137036 -0.006662996
v 0.01333435 -0.06137034 -0.006662996
v 0.01333435 -0.05999982 0.006706381
vt 0.1859282 0.8087298
vt 0.1859282 0.9367692
vt 0.1859282 0.9367691
vt 0.1859282 0.8087297
vt 0.1859282 0.6806903
vt 0.1859282 0.6806903
vt 0.5570691 0.9843985
vt 0.5570691 0.90292
vt 0.5570691 0.90292
vt 0.5570691 0.9843985
vt 0.5255914 0.7574449
vt 0.526977 0.7099602
vt 0.5229004 0.6941865
vt 0.5217543 0.7403191
vt 0.5230352 0.678143
vt 0.5266697 0.7842228
vt 0.5281596 0.7320739
vt 0.5264413 0.8331673
vt 0.5280357 0.7763543
vt 0.5570691 0.90292
vt 0.5591749 0.9033749
vt 0.5591749 0.9839436
vt 0.5570691 0.9843985
vt 0.5612806 0.9038298
vt 0.5612806 0.9834887
vt 0.5255914 0.7574449
vt 0.5217543 0.7403191
vt 0.5229004 0.6941865
vt 0.526977 0.7099602
vt 0.5230352 0.678143
vt 0.5266697 0.784223
vt 0.5281596 0.7320739
vt 0.5264413 0.8331673
vt 0.5280357 0.7763543
vt 0.5230352 0.7116081
vt 0.5217543 0.7737843
vt 0.5217543 0.7737843
vt 0.5217543 0.7737843
vt 0.5217543 0.7737843
vt 0.5255914 0.79091
vt 0.5255914 0.79091
vt 0.5266697 0.8176879
vt 0.5266697 0.817688
vt 0.5264413 0.8666325
vt 0.5264413 0.8666325
vt 0.6069975 0.5503486
vt 0.6071414 0.5848106
vt 0.6077522 0.6360929
vt 0.6068053 0.5595559
vt 0.6070863 0.6037918
vt 0.6067165 0.5271842
vt 0.6068053 0.5595559
vt 0.6070863 0.6037958
vt 0.6077522 0.6474634
vt 0.6077524 0.6474714
vt 0.6069975 0.5617191
vt 0.6073227 0.5856526
vt 0.6069809 0.5526242
vt 0.6072121 0.5921822
vt 0.6077468 0.6182802
vt 0.6068327 0.5110847
vt 0.6069809 0.5526242
vt 0.6072121 0.5921853
vt 0.6077468 0.6296507
vt 0.6077468 0.6296569
vt 0.6073227 0.5970231
vt 0.6077468 0.6296569
vt 0.6077468 0.6296507
vt 0.6072121 0.6035527
vt 0.6072121 0.6035558
vt 0.6068327 0.5224552
vt 0.6077524 0.6361009
vt 0.6071414 0.5848106
vt 0.6069975 0.5503486
vt 0.6068053 0.5595559
vt 0.6070863 0.6037958
vt 0.6070863 0.6151663
vt 0.6077524 0.6474714
vt 0.6077522 0.6474634
vt 0.6070863 0.6151623
vt 0.6067165 0.5385548
vt 0.6072121 0.5921822
vt 0.6069809 0.5526242
vt 0.6068327 0.5110847
vt 0.6072121 0.5921853
vt 0.6069809 0.5526242
vt 0.6073227 0.5856526
vt 0.6077468 0.6182864
vt 0.6070863 0.6037918
vt 0.6068053 0.5595559
vt 0.6067165 0.5271842
vt 0.1859282 0.9367691
vt 0.1886705 0.9367692
vt 0.1886705 0.8087298
vt 0.1859282 0.8087297
vt 0.1859282 0.6806903
vt 0.1886705 0.6806903
vt 0.1886705 0.9367692
vt 0.1886705 0.9367692
vt 0.1886705 0.8087298
vt 0.1886705 0.8087298
vt 0.1886705 0.6806903
vt 0.1886705 0.6806903
vt 0.5570691 0.90292
vt 0.5570691 0.9843985
vt 0.5591749 0.9843985
vt 0.5591749 0.90292
vt 0.5612806 0.90292
vt 0.5612806 0.9843985
vt 0.5255914 0.7568141
vt 0.5217543 0.7396885
vt 0.5229004 0.6935557
vt 0.526977 0.7093293
vt 0.5230352 0.6775122
vt 0.5266697 0.7835922
vt 0.5281596 0.7314433
vt 0.5264413 0.8325366
vt 0.5280357 0.7757235
vt 0.5255914 0.7568141
vt 0.526977 0.7093293
vt 0.5229004 0.6935557
vt 0.5217543 0.7396885
vt 0.5230352 0.6775122
vt 0.5266697 0.7835922
vt 0.5281596 0.7314433
vt 0.5264413 0.8325366
vt 0.5280357 0.7757235
vt 0.5230352 0.7109774
vt 0.5217543 0.7731535
vt 0.5217543 0.7731535
vt 0.5217543 0.7731535
vt 0.5255914 0.7902793
vt 0.5255914 0.7902793
vt 0.5217543 0.7731535
vt 0.5266697 0.8170574
vt 0.5266697 0.8170574
vt 0.5264413 0.8660017
vt 0.5264413 0.8660017
vt 0.6069975 0.549881
vt 0.6077522 0.6356254
vt 0.6071414 0.5843431
vt 0.6068053 0.5590883
vt 0.6070863 0.6033242
vt 0.6067165 0.5267167
vt 0.6070863 0.6033282
vt 0.6068053 0.5590883
vt 0.6077522 0.6469958
vt 0.6069975 0.5612515
vt 0.6077524 0.6470039
vt 0.6073227 0.5851851
vt 0.6077468 0.6178126
vt 0.6072121 0.5917147
vt 0.6069809 0.5521566
vt 0.6068327 0.5106171
vt 0.6072121 0.5917177
vt 0.6069809 0.5521566
vt 0.6077468 0.6178126
vt 0.6073227 0.5851851
vt 0.6077468 0.6178188
vt 0.6072121 0.6030852
vt 0.6077468 0.6291832
vt 0.6077468 0.6291893
vt 0.6072121 0.6030883
vt 0.6068327 0.5219877
vt 0.6077524 0.6356333
vt 0.6069975 0.549881
vt 0.6071414 0.5843431
vt 0.6068053 0.5590883
vt 0.6070863 0.6033282
vt 0.6077522 0.6469958
vt 0.6077524 0.6470039
vt 0.6070863 0.6146988
vt 0.6070863 0.6146948
vt 0.6067165 0.5380872
vt 0.6072121 0.5917147
vt 0.6068327 0.5106171
vt 0.6069809 0.5521566
vt 0.6072121 0.5917177
vt 0.6077468 0.6178188
vt 0.6073227 0.5851851
vt 0.6069809 0.5521566
vt 0.6070863 0.6033242
vt 0.6067165 0.5267167
vt 0.6068053 0.5590883
vt 0.1886705 0.9367692
vt 0.1859282 0.9367692
vt 0.1859282 0.8087298
vt 0.1886705 0.8087298
vt 0.1886705 0.6806903
vt 0.1859282 0.6806903
vt 0.5612806 0.9038298
vt 0.5612806 0.90292
vt 0.5612806 0.9843985
vt 0.5612806 0.9834887
vn -0.7071065 0 -0.707107
vn -0.7071052 0 -0.7071083
vn -0.7071063 0 0.7071072
vn -0.7071062 0 0.7071072
vn -0.7071038 0 -0.7071097
vn -0.7071064 0 0.7071072
vn -0.8553958 0 -0.517975
vn -0.8553958 0 -0.517975
vn -0.8598353 0 0.5105715
vn -0.8598353 0 0.5105715
vn 0.173652 0.3567827 -0.9179058
vn 0.213419 0.2671158 -0.9397348
vn 0.2505163 0.2279537 -0.9408925
vn 0.2353044 0.258424 -0.9369359
vn 0.3729343 -0.05606448 -0.9261624
vn 0.3102283 0.07036986 -0.9480541
vn 0.2903377 0.1077809 -0.950835
vn 0.3519737 -0.0122934 -0.9359291
vn 0.3519737 -0.0122934 -0.9359291
vn -0.8598353 0 0.5105715
vn -0.01462737 0 0.9998931
vn -0.01462738 0 0.9998931
vn -0.8598353 0 0.5105715
vn 0.860934 0 0.5087169
vn 0.8609338 0 0.508717
vn 0.1263513 0.2642764 0.9561345
vn 0.1654731 0.1997611 0.9657713
vn 0.1740351 0.1819828 0.9677779
vn 0.154957 0.1934083 0.9688042
vn 0.2596782 -0.008858416 0.9656545
vn 0.2242895 0.0503625 0.9732204
vn 0.2092596 0.07795674 0.9747478
vn 0.2557442 -0.008927808 0.9667032
vn 0.2557442 -0.008927809 0.9667032
vn -0.8160179 0.5780267 1.296475E-06
vn -0.8160179 0.5780267 1.296474E-06
vn -0.8160179 0.5780267 1.296475E-06
vn -0.30115 -0.9535767 -1.51831E-06
vn -0.30115 -0.9535767 -1.518309E-06
vn -0.6110786 -0.7915699 -1.085974E-06
vn -0.6119381 -0.7909057 -1.084401E-06
vn -0.9682993 -0.2497932 -2.611133E-07
vn -0.968136 -0.2504247 -2.617065E-07
vn -0.998343 0.05754363 0
vn -0.998343 0.05754363 0
vn 0.4391541 0.2966403 -0.8480261
vn 0.4787293 0.009861649 -0.8779071
vn 0.4832993 -0.1083794 -0.8687207
vn 0.4949815 -0.1586696 -0.8542935
vn 0.4915726 -0.1831912 -0.8513504
vn 0.5046295 -0.06100104 0.8611782
vn 0.4942567 -0.1582675 0.8547875
vn 0.4908567 -0.1827953 0.8518484
vn -0.1812808 -0.9834314 -0.0003034903
vn -0.1812808 -0.9834314 -0.0003034903
vn -0.1812808 -0.9834314 -0.0003034903
vn 0.3722557 -0.1610259 -0.9140549
vn 0.3899544 -0.1258278 -0.9121968
vn 0.3963439 -0.1127657 -0.9111506
vn 0.3722557 -0.1610259 -0.9140549
vn 0.4176189 -0.06562698 0.9062492
vn 0.3891604 -0.1254283 0.9125909
vn 0.3955293 -0.1124016 0.9115495
vn -0.6359818 -0.771704 -0.0003488355
vn -0.6359819 -0.771704 -0.0003488355
vn -0.6359819 -0.771704 -0.0003488355
vn -0.7421665 0.6702155 4.45389E-05
vn -0.7421665 0.6702157 4.45389E-05
vn -0.8174753 0.5759637 -8.54143E-07
vn -0.8174524 0.5759961 -8.391942E-07
vn -0.8923708 0.4513031 -5.551112E-05
vn 0.4825339 -0.108007 0.8691924
vn 0.4779253 0.009900067 0.8783447
vn 0.4383803 0.2962715 0.8485552
vn 0.4942567 -0.1582675 0.8547875
vn 0.4908567 -0.1827953 0.8518484
vn -0.8008245 0.5988992 -2.214602E-05
vn -0.7400652 0.6725351 1.129761E-05
vn -0.7400652 0.6725351 1.129761E-05
vn -0.8008426 0.598875 -2.21566E-05
vn -0.868633 0.4954561 -6.514194E-05
vn 0.3963439 -0.1127657 -0.9111506
vn 0.3899544 -0.1258278 -0.9121968
vn 0.4184919 -0.06588425 -0.9058278
vn 0.3955293 -0.1124016 0.9115495
vn 0.3891604 -0.1254283 0.9125909
vn 0.3715097 -0.1605527 0.9144416
vn 0.3715097 -0.1605527 0.9144416
vn 0.4915726 -0.1831912 -0.8513504
vn 0.4949815 -0.1586696 -0.8542935
vn 0.5054014 -0.06123344 -0.8607088
vn -0.7071063 0 0.7071072
vn 0.7071086 0 0.707105
vn 0.7071072 0 0.7071062
vn -0.7071062 0 0.7071072
vn -0.7071064 0 0.7071072
vn 0.7071099 0 0.7071037
vn 0.7071086 0 0.707105
vn 0.707107 0 -0.7071065
vn 0.707107 0 -0.7071065
vn 0.7071072 0 0.7071062
vn 0.7071099 0 0.7071037
vn 0.707107 0 -0.7071065
vn -0.8553958 0 -0.517975
vn -0.8553958 0 -0.517975
vn -8.135945E-07 0 -1
vn -8.135945E-07 0 -1
vn 0.8446785 0 -0.535274
vn 0.8446785 0 -0.535274
vn 0.1736521 -0.356783 -0.9179057
vn 0.2353046 -0.258424 -0.9369359
vn 0.2505162 -0.2279541 -0.9408924
vn 0.2134191 -0.2671159 -0.9397348
vn 0.3729343 0.05606441 -0.9261624
vn 0.3102284 -0.0703698 -0.9480541
vn 0.2903377 -0.1077809 -0.950835
vn 0.3519738 0.0122934 -0.9359291
vn 0.3519737 0.0122934 -0.9359291
vn 0.1263514 -0.2642767 0.9561345
vn 0.1549571 -0.1934083 0.9688042
vn 0.1740351 -0.1819831 0.9677779
vn 0.1654732 -0.1997612 0.9657713
vn 0.2596782 0.008858403 0.9656545
vn 0.2242895 -0.05036245 0.9732204
vn 0.2092596 -0.07795672 0.9747478
vn 0.2557442 0.008927812 0.9667032
vn 0.2557442 0.008927813 0.9667032
vn -0.816018 -0.5780264 1.296474E-06
vn -0.816018 -0.5780264 1.296474E-06
vn -0.8160181 -0.5780265 1.296474E-06
vn -0.3011498 0.9535769 -1.470863E-06
vn -0.6119382 0.7909056 -1.018752E-06
vn -0.6110787 0.7915698 -1.02037E-06
vn -0.3011498 0.9535769 -1.470862E-06
vn -0.9682993 0.2497929 -2.24682E-07
vn -0.9681361 0.2504246 -2.251887E-07
vn -0.998343 -0.05754365 0
vn -0.998343 -0.05754364 0
vn 0.4391541 -0.2966402 -0.8480261
vn 0.4832993 0.1083794 -0.8687207
vn 0.4787294 -0.009861619 -0.8779071
vn 0.4949815 0.1586696 -0.8542935
vn 0.4915726 0.1831912 -0.8513504
vn 0.5046295 0.06100106 0.8611782
vn 0.4908568 0.1827954 0.8518484
vn 0.4942567 0.1582676 0.8547875
vn -0.1812808 0.9834314 -0.0003034903
vn -0.1812808 0.9834314 -0.0003034903
vn -0.1812808 0.9834314 -0.0003034903
vn 0.3722557 0.1610259 -0.9140549
vn 0.3722557 0.1610259 -0.9140549
vn 0.3963439 0.1127657 -0.9111506
vn 0.3899544 0.1258278 -0.9121968
vn 0.4176188 0.06562698 0.9062491
vn 0.3955293 0.1124016 0.9115495
vn 0.3891604 0.1254283 0.9125909
vn -0.6359818 0.771704 -0.0003489717
vn -0.6359817 0.771704 -0.0003489717
vn -0.6359818 0.771704 -0.0003489717
vn -0.8174753 -0.5759637 -8.106223E-07
vn -0.7421666 -0.6702154 4.461783E-05
vn -0.7421666 -0.6702155 4.461783E-05
vn -0.8174524 -0.575996 -7.956617E-07
vn -0.8923706 -0.4513032 -5.551109E-05
vn 0.4825338 0.108007 0.8691925
vn 0.4383803 -0.2962714 0.8485552
vn 0.4779253 -0.009900038 0.8783447
vn 0.4942567 0.1582676 0.8547875
vn 0.4908568 0.1827954 0.8518484
vn -0.7400652 -0.6725351 1.134998E-05
vn -0.7400652 -0.6725351 1.134998E-05
vn -0.8008243 -0.5988993 -2.206218E-05
vn -0.8008425 -0.5988749 -2.207275E-05
vn -0.8686329 -0.4954563 -6.50185E-05
vn 0.3963439 0.1127657 -0.9111506
vn 0.4184919 0.06588426 -0.9058278
vn 0.3899544 0.1258278 -0.9121968
vn 0.3955293 0.1124016 0.9115495
vn 0.3715097 0.1605527 0.9144416
vn 0.3715098 0.1605527 0.9144416
vn 0.3891604 0.1254283 0.9125909
vn 0.4915726 0.1831912 -0.8513504
vn 0.5054014 0.06123347 -0.8607088
vn 0.4949815 0.1586696 -0.8542935
vn 0.707107 0 -0.7071065
vn -0.7071052 0 -0.7071083
vn -0.7071065 0 -0.707107
vn 0.707107 0 -0.7071065
vn 0.707107 0 -0.7071065
vn -0.7071038 0 -0.7071097
vn 0.860934 0 0.5087169
vn 0.8446785 0 -0.535274
vn 0.8446785 0 -0.535274
vn 0.8609338 0 0.508717
g bow04_yellow_0
f 3/3/3 2/2/2 1/1/1
f 4/4/4 3/3/3 1/1/1
f 4/4/4 1/1/1 5/5/5
f 6/6/6 4/4/4 5/5/5
f 9/9/9 8/8/8 7/7/7
f 10/10/10 9/9/9 7/7/7
f 13/13/13 12/12/12 11/11/11
f 14/14/14 13/13/13 11/11/11
f 15/15/15 13/13/13 14/14/14
f 16/16/16 11/11/11 12/12/12
f 17/17/17 16/16/16 12/12/12
f 18/18/18 16/16/16 17/17/17
f 19/19/19 18/18/18 17/17/17
f 22/22/22 21/21/21 20/20/20
f 23/23/23 22/22/22 20/20/20
f 21/21/21 22/22/22 24/24/24
f 22/22/22 25/25/25 24/24/24
f 28/28/28 27/27/27 26/26/26
f 29/29/29 28/28/28 26/26/26
f 28/28/28 30/30/30 27/27/27
f 26/26/26 31/31/31 29/29/29
f 31/31/31 32/32/32 29/29/29
f 32/32/32 31/31/31 33/33/33
f 34/34/34 32/32/32 33/33/33
f 37/37/37 36/36/36 35/35/35
f 40/40/40 39/39/39 38/38/38
f 41/41/41 40/40/40 38/38/38
f 40/40/40 41/41/41 42/42/42
f 43/43/43 40/40/40 42/42/42
f 43/43/43 42/42/42 44/44/44
f 45/45/45 43/43/43 44/44/44
f 48/48/48 47/47/47 46/46/46
f 49/49/49 47/47/47 48/48/48
f 50/50/50 49/49/49 48/48/48
f 53/53/53 52/52/52 51/51/51
f 56/56/56 55/55/55 54/54/54
f 59/59/59 58/58/58 57/57/57
f 60/60/60 59/59/59 57/57/57
f 63/63/63 62/62/62 61/61/61
f 66/66/66 65/65/65 64/64/64
f 69/69/69 68/68/68 67/67/67
f 70/70/70 69/69/69 67/67/67
f 71/71/71 69/69/69 70/70/70
f 74/74/74 73/73/73 72/72/72
f 73/73/73 75/75/75 72/72/72
f 75/75/75 76/76/76 72/72/72
f 79/79/79 78/78/78 77/77/77
f 80/80/80 79/79/79 77/77/77
f 81/81/81 80/80/80 77/77/77
f 84/84/84 83/83/83 82/82/82
f 87/87/87 86/86/86 85/85/85
f 88/88/88 87/87/87 85/85/85
f 91/91/91 90/90/90 89/89/89
f 94/94/94 93/93/93 92/92/92
f 95/95/95 94/94/94 92/92/92
f 94/94/94 95/95/95 96/96/96
f 97/97/97 94/94/94 96/96/96
f 100/100/100 99/99/99 98/98/98
f 101/101/101 100/100/100 98/98/98
f 100/100/100 101/101/101 102/102/102
f 103/103/103 100/100/100 102/102/102
f 106/106/106 105/105/105 104/104/104
f 107/107/107 106/106/106 104/104/104
f 107/107/107 108/108/108 106/106/106
f 108/108/108 109/109/109 106/106/106
f 112/112/112 111/111/111 110/110/110
f 113/113/113 112/112/112 110/110/110
f 112/112/112 114/114/114 111/111/111
f 110/110/110 115/115/115 113/113/113
f 115/115/115 116/116/116 113/113/113
f 115/115/115 117/117/117 116/116/116
f 117/117/117 118/118/118 116/116/116
f 121/121/121 120/120/120 119/119/119
f 122/122/122 121/121/121 119/119/119
f 123/123/123 121/121/121 122/122/122
f 124/124/124 119/119/119 120/120/120
f 125/125/125 124/124/124 120/120/120
f 126/126/126 124/124/124 125/125/125
f 127/127/127 126/126/126 125/125/125
f 130/130/130 129/129/129 128/128/128
f 133/133/133 132/132/132 131/131/131
f 134/134/134 133/133/133 131/131/131
f 135/135/135 132/132/132 133/133/133
f 136/136/136 135/135/135 133/133/133
f 137/137/137 135/135/135 136/136/136
f 138/138/138 137/137/137 136/136/136
f 141/141/141 140/140/140 139/139/139
f 141/141/141 142/142/142 140/140/140
f 142/142/142 143/143/143 140/140/140
f 146/146/146 145/145/145 144/144/144
f 149/149/149 148/148/148 147/147/147
f 152/152/152 151/151/151 150/150/150
f 153/153/153 152/152/152 150/150/150
f 156/156/156 155/155/155 154/154/154
f 159/159/159 158/158/158 157/157/157
f 162/162/162 161/161/161 160/160/160
f 163/163/163 162/162/162 160/160/160
f 160/160/160 164/164/164 163/163/163
f 167/167/167 166/166/166 165/165/165
f 167/167/167 165/165/165 168/168/168
f 165/165/165 169/169/169 168/168/168
f 172/172/172 171/171/171 170/170/170
f 173/173/173 172/172/172 170/170/170
f 173/173/173 174/174/174 172/172/172
f 177/177/177 176/176/176 175/175/175
f 180/180/180 179/179/179 178/178/178
f 181/181/181 180/180/180 178/178/178
f 184/184/184 183/183/183 182/182/182
f 187/187/187 186/186/186 185/185/185
f 188/188/188 187/187/187 185/185/185
f 187/187/187 188/188/188 189/189/189
f 190/190/190 187/187/187 189/189/189
f 193/193/193 192/192/192 191/191/191
f 194/194/194 193/193/193 191/191/191
